<svg width="1200" height="630" viewBox="0 0 1200 630" fill="none" xmlns="http://www.w3.org/2000/svg">
  <defs>
    <linearGradient id="bg" x1="0" y1="0" x2="1200" y2="630" gradientUnits="userSpaceOnUse">
      <stop stop-color="#061013"/>
      <stop offset="0.58" stop-color="#0B181D"/>
      <stop offset="1" stop-color="#142B31"/>
    </linearGradient>
    <radialGradient id="glowA" cx="0" cy="0" r="1" gradientUnits="userSpaceOnUse" gradientTransform="translate(910 135) rotate(105) scale(330 410)">
      <stop stop-color="#40D8C4" stop-opacity="0.34"/>
      <stop offset="1" stop-color="#40D8C4" stop-opacity="0"/>
    </radialGradient>
    <radialGradient id="glowB" cx="0" cy="0" r="1" gradientUnits="userSpaceOnUse" gradientTransform="translate(220 510) rotate(-18) scale(380 260)">
      <stop stop-color="#E8B451" stop-opacity="0.22"/>
      <stop offset="1" stop-color="#E8B451" stop-opacity="0"/>
    </radialGradient>
    <filter id="shadow" x="-20%" y="-20%" width="140%" height="140%" color-interpolation-filters="sRGB">
      <feDropShadow dx="0" dy="24" stdDeviation="26" flood-color="#000000" flood-opacity="0.34"/>
    </filter>
  </defs>

  <rect width="1200" height="630" fill="url(#bg)"/>
  <rect width="1200" height="630" fill="url(#glowA)"/>
  <rect width="1200" height="630" fill="url(#glowB)"/>

  <g opacity="0.16">
    <path d="M0 94H1200M0 174H1200M0 254H1200M0 334H1200M0 414H1200M0 494H1200M0 574H1200" stroke="#FFFFFF"/>
    <path d="M106 0V630M206 0V630M306 0V630M406 0V630M506 0V630M606 0V630M706 0V630M806 0V630M906 0V630M1006 0V630M1106 0V630" stroke="#FFFFFF"/>
  </g>

  <g filter="url(#shadow)">
    <rect x="690" y="98" width="390" height="300" rx="12" fill="#102228" fill-opacity="0.86" stroke="#FFFFFF" stroke-opacity="0.14"/>
    <text x="718" y="132" fill="#86EFAC" font-family="Inter, Arial, sans-serif" font-size="15" font-weight="800" letter-spacing="1.5">PRODUCTION AI LOOP</text>
    <rect x="737" y="181" width="76" height="38" rx="7" fill="#14363A" stroke="#40D8C4" stroke-opacity="0.55"/>
    <rect x="893" y="180" width="92" height="38" rx="7" fill="#14363A" stroke="#40D8C4" stroke-opacity="0.55"/>
    <rect x="787" y="292" width="96" height="38" rx="7" fill="#14363A" stroke="#40D8C4" stroke-opacity="0.55"/>
    <rect x="953" y="293" width="82" height="38" rx="7" fill="#14363A" stroke="#40D8C4" stroke-opacity="0.55"/>
    <path d="M813 200H893M938 218L850 292M883 310H953" stroke="#40D8C4" stroke-width="3" stroke-linecap="round" opacity="0.75"/>
    <text x="756" y="205" fill="#F4FAF7" font-family="Inter, Arial, sans-serif" font-size="13" font-weight="800">Data</text>
    <text x="911" y="204" fill="#F4FAF7" font-family="Inter, Arial, sans-serif" font-size="13" font-weight="800">Labels</text>
    <text x="804" y="316" fill="#F4FAF7" font-family="Inter, Arial, sans-serif" font-size="13" font-weight="800">Fine-tune</text>
    <text x="973" y="317" fill="#F4FAF7" font-family="Inter, Arial, sans-serif" font-size="13" font-weight="800">Ship</text>
  </g>

  <g>
    <circle cx="92" cy="78" r="30" fill="#0B181D" stroke="#40D8C4" stroke-opacity="0.72" stroke-width="2"/>
    <text x="92" y="86" text-anchor="middle" fill="#40D8C4" font-family="Inter, Arial, sans-serif" font-size="18" font-weight="900">HS</text>
    <text x="138" y="72" fill="#F4FAF7" font-family="Inter, Arial, sans-serif" font-size="21" font-weight="900">Hanumant Shinde</text>
    <text x="138" y="99" fill="#ACC2BD" font-family="Inter, Arial, sans-serif" font-size="16" font-weight="700">Senior AI/ML Engineer</text>
  </g>

  <text x="84" y="198" fill="#40D8C4" font-family="Inter, Arial, sans-serif" font-size="17" font-weight="900" letter-spacing="2.1">SLMS · AGENTIC AI · MLOPS · SECURITY PLATFORMS</text>
  <text x="84" y="278" fill="#F4FAF7" font-family="Inter, Arial, sans-serif" font-size="76" font-weight="900">AI systems</text>
  <text x="84" y="358" fill="#F4FAF7" font-family="Inter, Arial, sans-serif" font-size="76" font-weight="900">that ship.</text>
  <text x="84" y="414" fill="#E8B451" font-family="Inter, Arial, sans-serif" font-size="30" font-weight="900">Curiosity finds the edge case. Ownership gets it into production.</text>

  <g>
    <rect x="84" y="478" width="162" height="78" rx="10" fill="#102228" stroke="#FFFFFF" stroke-opacity="0.12"/>
    <text x="108" y="519" fill="#40D8C4" font-family="Inter, Arial, sans-serif" font-size="34" font-weight="900">97%</text>
    <text x="108" y="541" fill="#ACC2BD" font-family="Inter, Arial, sans-serif" font-size="13" font-weight="800">SLM accuracy</text>

    <rect x="264" y="478" width="162" height="78" rx="10" fill="#102228" stroke="#FFFFFF" stroke-opacity="0.12"/>
    <text x="288" y="519" fill="#40D8C4" font-family="Inter, Arial, sans-serif" font-size="34" font-weight="900">2B+</text>
    <text x="288" y="541" fill="#ACC2BD" font-family="Inter, Arial, sans-serif" font-size="13" font-weight="800">daily txns</text>

    <rect x="444" y="478" width="162" height="78" rx="10" fill="#102228" stroke="#FFFFFF" stroke-opacity="0.12"/>
    <text x="468" y="519" fill="#40D8C4" font-family="Inter, Arial, sans-serif" font-size="34" font-weight="900">70%</text>
    <text x="468" y="541" fill="#ACC2BD" font-family="Inter, Arial, sans-serif" font-size="13" font-weight="800">less triage</text>
  </g>

  <text x="690" y="474" fill="#ACC2BD" font-family="Inter, Arial, sans-serif" font-size="20" font-weight="700">Portfolio</text>
  <text x="690" y="508" fill="#F4FAF7" font-family="Inter, Arial, sans-serif" font-size="28" font-weight="900">hanumant1255.github.io</text>
</svg>
